<svg width="161" height="169" viewBox="0 0 161 169" xmlns="http://www.w3.org/2000/svg"><title>images/logo</title><g fill="none" fill-rule="evenodd"><path d="M107.387 81.18s43.748-25.631 50.474-40.055c6.725-14.424.485-31.57-13.939-38.295-14.424-6.726-31.57-.486-38.295 13.938-6.726 14.424 1.76 64.412 1.76 64.412zm15.277-32.539s16.345-9.576 18.858-14.965c2.513-5.389.181-11.794-5.208-14.307s-11.794-.182-14.307 5.207c-2.513 5.39.657 24.065.657 24.065z" fill="#333031"/><path d="M123.918 69.095c8.936 19.049 16.143 38.26 15.543 49.706-1.518 28.962-26.227 51.21-55.19 49.693-28.962-1.518-51.21-26.227-49.693-55.19.011-.216.026-.435.043-.656l24.262-11.834c-2.283 5.068-3.78 9.633-3.963 13.141-.932 17.775 12.722 32.94 30.497 33.87 17.774.932 32.939-12.722 33.87-30.497.461-8.792-6.584-25.049-13.821-39.234l18.452-9z" fill="#333031"/><path d="M16 152c-34-102 93.582-66.47 99.501-90.213" stroke="#333031" stroke-width="20"/></g></svg>