<?xml version="1.0" encoding="UTF-8"?>
<svg width="64px" height="75px" viewBox="0 0 64 75" version="1.1" xmlns="http://www.w3.org/2000/svg" xmlns:xlink="http://www.w3.org/1999/xlink">
    <!-- Generator: Sketch 41.2 (35397) - http://www.bohemiancoding.com/sketch -->
    <title>images/logo</title>
    <desc>Created with Sketch.</desc>
    <defs>
        <rect id="path-1" x="2" y="0" width="63" height="74"></rect>
        <mask id="mask-2" maskContentUnits="userSpaceOnUse" maskUnits="objectBoundingBox" x="0" y="0" width="63" height="74" fill="white">
            <use xlink:href="#path-1"></use>
        </mask>
        <mask id="mask-4" maskContentUnits="userSpaceOnUse" maskUnits="objectBoundingBox" x="0" y="0" width="63" height="74" fill="white">
            <use xlink:href="#path-1"></use>
        </mask>
    </defs>
    <g id="Page-1" stroke="none" stroke-width="1" fill="none" fill-rule="evenodd">
        <g id="Desktop-HD-Copy" transform="translate(-285.000000, -84.000000)">
            <g id="Group" transform="translate(283.000000, 68.000000)">
                <g id="images/logo" transform="translate(0.015385, 16.033333)">
                    <mask id="mask-3" fill="white">
                        <use xlink:href="#path-1"></use>
                    </mask>
                    <g id="Rectangle-3" stroke="#FFFFFF" mask="url(#mask-2)" stroke-width="6">
                        <use mask="url(#mask-4)" xlink:href="#path-1"></use>
                    </g>
                    <g id="Group-17" mask="url(#mask-3)" stroke="#FFFFFF" stroke-width="3">
                        <g transform="translate(-3.000000, -3.000000)" id="Combined-Shape">
                            <path d="M56.1615698,56.6397025 C59.2400557,53.5612166 39.5894649,35.1595104 37.1305629,37.6184124 C34.6716609,40.0773144 53.083084,59.7181884 56.1615698,56.6397025 Z M46.3171989,50.9458963 C40.9477271,45.7949272 35.7500928,38.9988825 37.1305629,37.6184124 C39.5894649,35.1595104 59.2400557,53.5612166 56.1615698,56.6397025 C55.8133872,56.9878851 55.269065,57.0454408 54.5809823,56.8700988 C48.7853128,58.478497 29.1296183,53.9401058 29.6521083,50.9769178 C29.9985334,49.0122429 38.9180671,49.4262755 46.3171989,50.9458963 Z" transform="translate(43.064916, 47.299299) scale(1, -1) translate(-43.064916, -47.299299) "></path>
                            <path d="M58.0231083,35.6381524 C61.1015942,32.5596665 41.4510033,14.1579603 38.9921013,16.6168622 C36.5331994,19.0757642 54.9446224,38.7166382 58.0231083,35.6381524 Z M48.1787374,29.9443462 C42.8092656,24.7933771 37.6116313,17.9973323 38.9921013,16.6168622 C41.4510033,14.1579603 61.1015942,32.5596665 58.0231083,35.6381524 C57.6749257,35.986335 57.1306035,36.0438906 56.4425208,35.8685487 C50.6468512,37.4769468 30.9911567,32.9385556 31.5136467,29.9753676 C31.8600719,28.0106927 40.7796056,28.4247254 48.1787374,29.9443462 Z"></path>
                            <path d="M69.4152205,24.3058864 C72.4937064,21.2274005 52.8431156,2.82569432 50.3842136,5.28459629 C47.9253116,7.74349826 66.3367347,27.3843723 69.4152205,24.3058864 Z M59.5708496,18.6120802 C54.2013778,13.4611111 49.0037435,6.66506634 50.3842136,5.28459629 C52.8431156,2.82569432 72.4937064,21.2274005 69.4152205,24.3058864 C69.0670379,24.654069 68.5227157,24.7116247 67.834633,24.5362827 C62.0389635,26.1446808 42.383269,21.6062896 42.905759,18.6431016 C43.2521841,16.6784268 52.1717178,17.0924594 59.5708496,18.6120802 Z" transform="translate(56.318567, 14.965483) rotate(25.000000) translate(-56.318567, -14.965483) "></path>
                            <path d="M69.4152205,69.6719685 C72.4937064,66.5934826 52.8431156,48.1917764 50.3842136,50.6506784 C47.9253116,53.1095803 66.3367347,72.7504544 69.4152205,69.6719685 Z M59.5708496,63.9781623 C54.2013778,58.8271932 49.0037435,52.0311484 50.3842136,50.6506784 C52.8431156,48.1917764 72.4937064,66.5934826 69.4152205,69.6719685 C69.0670379,70.0201511 68.5227157,70.0777067 67.834633,69.9023648 C62.0389635,71.5107629 42.383269,66.9723717 42.905759,64.0091837 C43.2521841,62.0445088 52.1717178,62.4585415 59.5708496,63.9781623 Z" transform="translate(56.318567, 60.331565) scale(1, -1) rotate(25.000000) translate(-56.318567, -60.331565) "></path>
                            <path d="M27.8565598,56.6397025 C30.9350456,53.5612166 11.2844548,35.1595104 8.82555279,37.6184124 C6.36665082,40.0773144 24.7780739,59.7181884 27.8565598,56.6397025 Z M18.0121888,50.9458963 C12.642717,45.7949272 7.44508275,38.9988825 8.82555279,37.6184124 C11.2844548,35.1595104 30.9350456,53.5612166 27.8565598,56.6397025 C27.5083771,56.9878851 26.9640549,57.0454408 26.2759722,56.8700988 C20.4803027,58.478497 0.82460817,53.9401058 1.34709816,50.9769178 C1.69352335,49.0122429 10.613057,49.4262755 18.0121888,50.9458963 Z" transform="translate(14.759906, 47.299299) scale(-1, -1) translate(-14.759906, -47.299299) "></path>
                            <path d="M26.7180982,35.6381524 C29.7965841,32.5596665 10.1459932,14.1579603 7.68709125,16.6168622 C5.22818928,19.0757642 23.6396123,38.7166382 26.7180982,35.6381524 Z M16.8737273,29.9443462 C11.5042555,24.7933771 6.30662121,17.9973323 7.68709125,16.6168622 C10.1459932,14.1579603 29.7965841,32.5596665 26.7180982,35.6381524 C26.3699156,35.986335 25.8255934,36.0438906 25.1375107,35.8685487 C19.3418411,37.4769468 -0.313853369,32.9385556 0.208636624,29.9753676 C0.555061815,28.0106927 9.47459547,28.4247254 16.8737273,29.9443462 Z" transform="translate(13.621445, 26.297749) scale(-1, 1) translate(-13.621445, -26.297749) "></path>
                            <path d="M40.3721398,24.3058864 C43.4506257,21.2274005 23.8000348,2.82569432 21.3411329,5.28459629 C18.8822309,7.74349826 37.2936539,27.3843723 40.3721398,24.3058864 Z M30.5277689,18.6120802 C25.1582971,13.4611111 19.9606628,6.66506634 21.3411329,5.28459629 C23.8000348,2.82569432 43.4506257,21.2274005 40.3721398,24.3058864 C40.0239572,24.654069 39.479635,24.7116247 38.7915523,24.5362827 C32.9958828,26.1446808 13.3401882,21.6062896 13.8626782,18.6431016 C14.2091034,16.6784268 23.1286371,17.0924594 30.5277689,18.6120802 Z" transform="translate(27.275486, 14.965483) scale(-1, 1) rotate(25.000000) translate(-27.275486, -14.965483) "></path>
                            <path d="M40.9413706,71.6719685 C44.0198565,68.5934826 24.3692656,50.1917764 21.9103636,52.6506784 C19.4514617,55.1095803 37.8628847,74.7504544 40.9413706,71.6719685 Z M31.0969997,65.9781623 C25.7275279,60.8271932 20.5298936,54.0311484 21.9103636,52.6506784 C24.3692656,50.1917764 44.0198565,68.5934826 40.9413706,71.6719685 C40.593188,72.0201511 40.0488658,72.0777067 39.360783,71.9023648 C33.5651135,73.5107629 13.909419,68.9723717 14.431909,66.0091837 C14.7783342,64.0445088 23.6978678,64.4585415 31.0969997,65.9781623 Z" transform="translate(27.844717, 62.331565) scale(-1, -1) rotate(25.000000) translate(-27.844717, -62.331565) "></path>
                        </g>
                    </g>
                </g>
            </g>
        </g>
    </g>
</svg>