<svg width="64" height="75" viewBox="0 0 64 75" xmlns="http://www.w3.org/2000/svg" xmlns:xlink="http://www.w3.org/1999/xlink"><title>images/logo</title><defs><path id="a" d="M2 0h63v74H2z"/><mask id="b" x="0" y="0" width="63" height="74" fill="#fff"><use xlink:href="#a"/></mask><mask id="c" x="0" y="0" width="63" height="74" fill="#fff"><use xlink:href="#a"/></mask></defs><g transform="translate(-1.985 .033)" fill="none" fill-rule="evenodd"><mask id="d" fill="#fff"><use xlink:href="#a"/></mask><use mask="url(#c)" xlink:href="#a" stroke="#FFF" stroke-width="6"/><g mask="url(#d)" stroke="#FFF" stroke-width="3"><path d="M53.162 34.959c3.078 3.078-16.573 21.48-19.031 19.021-2.46-2.459 15.952-22.1 19.03-19.021zm-9.845 5.694c-5.37 5.15-10.567 11.947-9.186 13.327 2.458 2.46 22.11-15.943 19.03-19.021-.348-.348-.892-.406-1.58-.23-5.796-1.609-25.451 2.93-24.929 5.893.347 1.964 9.266 1.55 16.665.03z"/><path d="M55.023 32.638c3.079-3.078-16.572-21.48-19.03-19.021-2.46 2.459 15.952 22.1 19.03 19.021zm-9.844-5.694c-5.37-5.15-10.567-11.947-9.187-13.327 2.459-2.459 22.11 15.943 19.031 19.021-.348.348-.892.406-1.58.23-5.796 1.609-25.452-2.93-24.93-5.893.347-1.964 9.267-1.55 16.666-.03zM61.24 25.966C65.333 24.476 55.3-.506 52.033.684c-3.268 1.189 5.118 26.77 9.209 25.282zm-6.515-9.321C52.035 9.707 50.197 1.35 52.032.684c3.267-1.19 13.3 23.793 9.209 25.282-.463.168-.98-.01-1.53-.46-5.933-.991-21.829-13.411-20.103-15.876 1.144-1.634 9.053 2.51 15.117 7.015zM61.24 43.331c4.092 1.49-5.94 26.472-9.208 25.282-3.268-1.189 5.118-26.77 9.209-25.282zm-6.515 9.321c-2.69 6.938-4.528 15.294-2.693 15.961 3.267 1.19 13.3-23.793 9.209-25.282-.463-.168-.98.01-1.53.46-5.933.991-21.829 13.411-20.103 15.876 1.144 1.634 9.053-2.51 15.117-7.015zM-1.337 34.959c-3.078 3.078 16.572 21.48 19.031 19.021 2.46-2.459-15.952-22.1-19.03-19.021zm9.845 5.694c5.37 5.15 10.567 11.947 9.186 13.327-2.459 2.46-22.11-15.943-19.03-19.021.347-.348.892-.406 1.58-.23 5.796-1.609 25.451 2.93 24.929 5.893-.347 1.964-9.266 1.55-16.665.03zM-2.475 32.638c-3.079-3.078 16.572-21.48 19.03-19.021 2.46 2.459-15.952 22.1-19.03 19.021zm9.844-5.694c5.37-5.15 10.567-11.947 9.187-13.327-2.46-2.459-22.11 15.943-19.031 19.021.348.348.892.406 1.58.23 5.796 1.609 25.452-2.93 24.93-5.893-.347-1.964-9.267-1.55-16.666-.03z"/><path d="M16.353 25.966c-4.09-1.49 5.942-26.472 9.21-25.282 3.267 1.189-5.119 26.77-9.21 25.282zm6.516-9.321C25.559 9.707 27.397 1.35 25.563.684c-3.268-1.19-13.3 23.793-9.21 25.282.463.168.98-.01 1.53-.46 5.933-.991 21.829-13.411 20.103-15.876-1.144-1.634-9.053 2.51-15.117 7.015zM16.923 45.331c-4.092 1.49 5.941 26.472 9.209 25.282 3.267-1.189-5.118-26.77-9.21-25.282zm6.515 9.321c2.69 6.938 4.528 15.294 2.694 15.961-3.268 1.19-13.3-23.793-9.21-25.282.463-.168.98.01 1.53.46 5.933.991 21.829 13.411 20.103 15.876-1.144 1.634-9.053-2.51-15.117-7.015z"/></g></g></svg>