<?xml version="1.0" encoding="UTF-8"?>
<svg width="161px" height="169px" viewBox="0 0 161 169" version="1.1" xmlns="http://www.w3.org/2000/svg" xmlns:xlink="http://www.w3.org/1999/xlink">
    <!-- Generator: Sketch 41.2 (35397) - http://www.bohemiancoding.com/sketch -->
    <title>images/logo</title>
    <desc>Created with Sketch.</desc>
    <defs></defs>
    <g id="Home-Page" stroke="none" stroke-width="1" fill="none" fill-rule="evenodd">
        <g id="images/touch/chrome-touch-icon-192x192" transform="translate(-16.000000, -14.000000)">
            <g id="images/logo" transform="translate(101.134632, 93.327348) rotate(14.000000) translate(-101.134632, -93.327348) translate(36.634632, 4.327348)">
                <path d="M86.5393076,85.4145164 C86.5393076,85.4145164 122.786869,49.9610471 125.823604,34.3383993 C128.86034,18.7157514 118.657441,3.5893328 103.034794,0.552597677 C87.4121457,-2.48413744 72.2857271,7.71876074 69.248992,23.3414086 C66.2122569,38.9640564 86.5393076,85.4145164 86.5393076,85.4145164 Z M93.4912403,50.1461826 C93.4912403,50.1461826 107.033688,36.9004155 108.168242,31.0636397 C109.302797,25.2268638 105.490893,19.5754841 99.6541172,18.4409298 C93.8173413,17.3063755 88.1659616,21.1182793 87.0314073,26.9550551 C85.896853,32.791831 93.4912403,50.1461826 93.4912403,50.1461826 Z" id="Combined-Shape" fill="#333031"></path>
                <g id="Group" transform="translate(23.336629, 69.251620)" fill="#333031">
                    <path d="M76.3189989,0.437103427 C89.5985032,16.758702 101.238505,33.6547464 103.425579,44.9062665 C108.959505,73.3758502 90.3664813,100.941142 61.8968976,106.475068 C33.427314,112.008994 5.86202258,93.4159707 0.328096109,64.946387 C0.286763885,64.7337512 0.247806754,64.5179814 0.211191542,64.2991365 L20.8899134,46.9476287 C19.9002195,52.417523 19.5526926,57.2088723 20.2229869,60.6572373 C23.6192067,78.1292739 40.5362711,89.5399779 58.0083078,86.143758 C75.4803444,82.7475382 86.8910484,65.8304738 83.4948285,48.3584371 C81.8148497,39.7156954 71.0465306,25.6461314 60.5922469,13.6334153 L76.3189989,0.437103427 Z" id="Combined-Shape"></path>
                </g>
                <path d="M15.000068,176.239145 C-42.66602,85.4943255 89.7214457,89.1034209 89.7214457,64.6347313" id="Path-4" stroke="#333031" stroke-width="20"></path>
            </g>
        </g>
    </g>
</svg>