<svg xmlns="http://www.w3.org/2000/svg" width="512" height="512" viewBox="0 0 512 512"><path d="M432 352c-22.58 0-42.961 9.369-57.506 24.415L158.992 268.664A80.463 80.463 0 0 0 160 256a80.44 80.44 0 0 0-1.008-12.663l215.502-107.751C389.039 150.631 409.42 160 432 160c44.184 0 80-35.817 80-80S476.184 0 432 0s-80 35.817-80 80c0 4.311.352 8.538 1.008 12.663L137.506 200.415C122.96 185.37 102.58 176 80 176c-44.183 0-80 35.818-80 80 0 44.184 35.817 80 80 80 22.58 0 42.96-9.369 57.506-24.414l215.502 107.751A80.56 80.56 0 0 0 352 432c0 44.184 35.816 80 80 80s80-35.816 80-80c0-44.182-35.816-80-80-80z" fill="#FFF"/></svg>